solid visual_pyramid.stl
  facet normal 0.0 0.0 -1.0
    outer loop
      vertex -0.5 -0.5 -1
      vertex -0.5 0.5 -1
      vertex 0.5 -0.5 -1
    endloop
  endfacet
  facet normal 0.0 0.0 -1.0
    outer loop
      vertex 0.5 -0.5 -1
      vertex -0.5 0.5 -1
      vertex 0.5 0.5 -1
    endloop
  endfacet
  facet normal 0.0 0.8944271909999159 -0.4472135954999579
    outer loop
      vertex 0 0 0
      vertex 0.5 -0.5 -1
      vertex -0.5 -0.5 -1
    endloop
  endfacet
  facet normal -0.8944271909999159 0.0 -0.4472135954999579
    outer loop
      vertex 0 0 0
      vertex 0.5 0.5 -1
      vertex 0.5 -0.5 -1
    endloop
  endfacet
  facet normal 0.0 -0.8944271909999159 -0.4472135954999579
    outer loop
      vertex 0 0 0
      vertex -0.5 0.5 -1
      vertex 0.5 0.5 -1
    endloop
  endfacet
  facet normal 0.8944271909999159 0.0 -0.4472135954999579
    outer loop
      vertex 0 0 0
      vertex -0.5 -0.5 -1
      vertex -0.5 0.5 -1
    endloop
  endfacet
endsolid visual_pyramid.stl
